<svg width="1919" height="1639" viewBox="0 0 1919 1639" fill="none" xmlns="http://www.w3.org/2000/svg">
<rect x="1922" y="1639" width="1922" height="1639" transform="rotate(-180 1922 1639)" fill="url(#paint0_linear_379_187)"/>
<mask id="mask0_379_187" style="mask-type:alpha" maskUnits="userSpaceOnUse" x="0" y="0" width="1923" height="1639">
<path d="M1922.98 1638.01L0.978638 1638.01L0.978783 0.984087L961.979 0.984048L1922.98 0.984253L1922.98 1638.01Z" fill="url(#paint1_linear_379_187)"/>
</mask>
<g mask="url(#mask0_379_187)">
<path d="M1389.28 -22.749C1389.28 306.491 1656.42 573.701 1985.59 573.701V-22.749L1389.28 -22.749Z" fill="#8C80FC"/>
<path d="M1421.88 1815.07C1421.88 1485.83 1154.73 1218.62 825.568 1218.62L825.568 1815.07H1421.88Z" fill="#59B1FE"/>
<path d="M698.81 509.394C698.81 838.634 965.957 1105.84 1295.12 1105.84V509.394L698.81 509.394Z" fill="#6E9CFD"/>
<path d="M1970.49 828.888C1652.37 828.888 1394.19 1081.03 1394.19 1391.71L1970.49 1391.71L1970.49 828.888Z" fill="#7E8DFC"/>
<path d="M-54.0299 1127.62C264.087 1127.62 522.27 1379.76 522.27 1690.43L-54.0299 1690.43L-54.0299 1127.62Z" fill="#58B4FE"/>
<path d="M499.333 -108.804C499.333 205.694 244.288 460.939 -69.9634 460.939L-69.9634 -108.804L499.333 -108.804Z" fill="#52B7FE"/>
</g>
<defs>
<linearGradient id="paint0_linear_379_187" x1="3844" y1="1599.98" x2="1533.6" y2="2597.78" gradientUnits="userSpaceOnUse">
<stop stop-color="#35D3FF"/>
<stop offset="1" stop-color="#A963FB"/>
</linearGradient>
<linearGradient id="paint1_linear_379_187" x1="0.978788" y1="1676.98" x2="2310.5" y2="678.354" gradientUnits="userSpaceOnUse">
<stop stop-color="#35D3FF"/>
<stop offset="1" stop-color="#A963FB"/>
</linearGradient>
</defs>
</svg>
