<svg width="29" height="29" viewBox="0 0 29 29" fill="none" xmlns="http://www.w3.org/2000/svg">
<g id="Iconly/Bold/Folder">
<g id="Folder">
<path id="Folder_2" fill-rule="evenodd" clip-rule="evenodd" d="M16.1866 5.69424H19.767C24.0704 5.69424 26.1697 7.99294 26.158 12.707V18.3896C26.158 22.8937 23.3823 25.6708 18.8689 25.6708H10.1104C5.62035 25.6708 2.83301 22.8937 2.83301 18.378V9.61487C2.83301 4.78409 4.97891 2.3337 9.2124 2.3337H11.0551C12.1408 2.32203 13.1543 2.82377 13.8191 3.67558L14.8454 5.0408C15.1719 5.4492 15.6618 5.69424 16.1866 5.69424ZM9.09582 17.8412H19.8953C20.3735 17.8412 20.7583 17.4445 20.7583 16.966C20.7583 16.476 20.3735 16.0909 19.8953 16.0909H9.09582C8.606 16.0909 8.22114 16.476 8.22114 16.966C8.22114 17.4445 8.606 17.8412 9.09582 17.8412Z" fill="#8E7EFC"/>
</g>
</g>
</svg>
