<svg width="29" height="29" viewBox="0 0 29 29" fill="none" xmlns="http://www.w3.org/2000/svg">
<g id="Iconly/Bold/Document">
<g id="Document">
<path id="Document_2" fill-rule="evenodd" clip-rule="evenodd" d="M9.60942 2.33398H19.3838C22.9863 2.33398 24.9923 4.41099 24.9923 7.96991V20.0236C24.9923 23.6408 22.9863 25.6712 19.3838 25.6712H9.60942C6.06402 25.6712 3.99976 23.6408 3.99976 20.0236V7.96991C3.99976 4.41099 6.06402 2.33398 9.60942 2.33398ZM9.92425 7.77162V7.75995H13.4102C13.9128 7.75995 14.321 8.16835 14.321 8.66893C14.321 9.18352 13.9128 9.59192 13.4102 9.59192H9.92425C9.42159 9.59192 9.01457 9.18352 9.01457 8.68177C9.01457 8.18002 9.42159 7.77162 9.92425 7.77162ZM9.92425 14.8662H19.0676C19.5691 14.8662 19.9773 14.4578 19.9773 13.956C19.9773 13.4543 19.5691 13.0447 19.0676 13.0447H9.92425C9.42159 13.0447 9.01457 13.4543 9.01457 13.956C9.01457 14.4578 9.42159 14.8662 9.92425 14.8662ZM9.92427 20.1986H19.0677C19.533 20.152 19.8841 19.7541 19.8841 19.2885C19.8841 18.8101 19.533 18.4134 19.0677 18.3667H9.92427C9.5744 18.3317 9.23619 18.495 9.04959 18.7984C8.86299 19.0901 8.86299 19.4752 9.04959 19.7786C9.23619 20.0703 9.5744 20.2453 9.92427 20.1986Z" fill="#4DBCFE"/>
</g>
</g>
</svg>
